<svg version="1.1" id="Layer_1" xmlns="http://www.w3.org/2000/svg" xmlns:xlink="http://www.w3.org/1999/xlink" x="0px" y="0px"
	 width="100%" viewBox="0 0 500 500" enable-background="new 0 0 500 500" xml:space="preserve">
<path fill="#FF3131" opacity="1.000000" stroke="none" 
	d="
M332.000000,501.000000 
	C221.333359,501.000000 111.166718,501.000000 1.000059,501.000000 
	C1.000039,334.333405 1.000039,167.666794 1.000020,1.000149 
	C167.666565,1.000099 334.333130,1.000099 500.999756,1.000050 
	C500.999847,167.666519 500.999847,334.333038 500.999939,500.999786 
	C444.833344,501.000000 388.666656,501.000000 332.000000,501.000000 
M349.500000,148.957672 
	C258.745728,148.957672 167.991470,148.957672 77.225677,148.957672 
	C77.225677,217.373062 77.225677,285.123199 77.225677,352.847168 
	C193.217514,352.847168 308.946838,352.847168 424.757874,352.847168 
	C424.757874,284.735016 424.757874,216.994232 424.757874,148.957672 
	C399.783966,148.957672 375.141968,148.957672 349.500000,148.957672 
z"/>
<path fill="#FFF0F0" opacity="1.000000" stroke="none" 
	d="
M350.000000,148.957672 
	C375.141968,148.957672 399.783966,148.957672 424.757874,148.957672 
	C424.757874,216.994232 424.757874,284.735016 424.757874,352.847168 
	C308.946838,352.847168 193.217514,352.847168 77.225677,352.847168 
	C77.225677,285.123199 77.225677,217.373062 77.225677,148.957672 
	C167.991470,148.957672 258.745728,148.957672 350.000000,148.957672 
M420.910706,223.631470 
	C420.910706,221.853256 420.910706,220.075027 420.910706,218.198517 
	C307.339081,218.198517 194.340195,218.198517 81.342827,218.198517 
	C81.342827,262.061707 81.342827,305.603455 81.342827,349.162140 
	C194.589523,349.162140 307.478180,349.162140 420.910706,349.162140 
	C420.910706,307.467010 420.910706,266.034424 420.910706,223.631470 
M81.946083,185.500000 
	C81.946083,194.589020 81.946083,203.678040 81.946083,212.711853 
	C195.028122,212.711853 307.404236,212.711853 419.861389,212.711853 
	C419.861389,192.991913 419.861389,173.580811 419.861389,153.915222 
	C307.215088,153.915222 194.850052,153.915222 81.946083,153.915222 
	C81.946083,164.265198 81.946083,174.382599 81.946083,185.500000 
z"/>
<path fill="#FF3232" opacity="1.000000" stroke="none" 
	d="
M420.910706,224.116638 
	C420.910706,266.034424 420.910706,307.467010 420.910706,349.162140 
	C307.478180,349.162140 194.589523,349.162140 81.342827,349.162140 
	C81.342827,305.603455 81.342827,262.061707 81.342827,218.198517 
	C194.340195,218.198517 307.339081,218.198517 420.910706,218.198517 
	C420.910706,220.075027 420.910706,221.853256 420.910706,224.116638 
M266.222107,301.179169 
	C260.282684,301.179169 254.343246,301.179169 247.929398,301.179169 
	C247.929398,284.400177 247.929398,268.159821 247.929398,251.799469 
	C242.365829,251.799469 237.291229,251.799469 232.289413,251.799469 
	C232.289413,273.365753 232.289413,294.590851 232.289413,315.661682 
	C270.426392,315.661682 308.175659,315.661682 346.039520,315.661682 
	C346.039520,303.833405 346.233978,292.342773 345.967346,280.862885 
	C345.804840,273.866882 342.378113,270.180817 335.487244,268.921051 
	C324.620483,266.934418 314.073730,269.078278 303.145477,271.340698 
	C303.409485,275.081116 303.639252,278.336578 303.885376,281.823669 
	C310.785065,281.823669 317.273132,281.873413 323.759827,281.802582 
	C326.968719,281.767548 329.627686,282.663727 329.830688,286.222626 
	C330.110901,291.135284 329.900970,296.075897 329.900970,300.789429 
	C314.579926,300.789429 299.851562,300.789429 284.767639,300.789429 
	C284.767639,290.116882 284.767639,279.841614 284.767639,269.342896 
	C279.341675,269.342896 274.282227,269.342896 268.797363,269.342896 
	C268.797363,278.591278 268.873871,287.558899 268.724152,296.522705 
	C268.698364,298.067291 267.711243,299.595825 266.222107,301.179169 
M192.663620,302.485718 
	C192.663620,285.589233 192.663620,268.692749 192.663620,251.914963 
	C186.734070,251.914963 181.692245,251.914963 176.244659,251.914963 
	C176.244659,268.481384 176.244659,284.574341 176.244659,300.955872 
	C166.207199,300.955872 156.581528,301.238892 146.984131,300.840424 
	C141.933533,300.630768 139.200409,296.355865 139.545456,290.831482 
	C139.707932,288.230408 139.919037,285.632355 140.105743,283.065582 
	C124.693542,281.145416 126.281715,279.861694 124.732147,294.183716 
	C124.678535,294.679321 124.677078,295.181702 124.671822,295.681152 
	C124.548988,307.354980 129.802994,314.248352 141.546646,315.056366 
	C156.468567,316.083130 171.483414,315.761963 186.458374,316.011932 
	C188.387909,316.044159 190.318436,316.016357 192.663589,316.016357 
	C192.663589,311.417786 192.663589,307.448395 192.663620,302.485718 
M223.054565,304.498901 
	C223.054565,292.763611 223.054565,281.028351 223.054565,269.325562 
	C217.360535,269.325562 212.306808,269.325562 207.171524,269.325562 
	C207.095154,270.289825 206.999710,270.936401 206.999222,271.583069 
	C206.988037,286.379456 207.026154,301.176056 206.956818,315.972137 
	C206.939682,319.630829 207.068726,323.516815 202.040314,324.462097 
	C201.419495,324.578796 200.613068,325.853210 200.584778,326.616821 
	C200.438217,330.570740 200.516647,334.532990 200.516647,338.398773 
	C213.344925,340.674072 219.905457,336.540405 221.971390,324.350830 
	C223.016830,318.182556 222.735840,311.789429 223.054565,304.498901 
M359.562531,259.593750 
	C356.801086,259.203308 355.830170,260.274170 355.851685,263.163025 
	C355.977905,280.131653 355.917297,297.101593 355.949341,314.071075 
	C355.950439,314.667419 356.263245,315.263153 356.362122,315.615021 
	C361.732086,315.615021 366.792572,315.615021 371.710144,315.615021 
	C371.710144,296.817078 371.710144,278.404266 371.710144,260.079803 
	C371.129913,259.887238 370.826904,259.702820 370.521118,259.698120 
	C367.195679,259.646423 363.869781,259.622986 359.562531,259.593750 
M161.825378,275.576721 
	C160.220306,275.260925 158.075134,275.446320 157.175003,274.476318 
	C156.405899,273.647522 156.466812,270.594818 157.210175,270.098785 
	C159.150818,268.803894 161.666885,268.371338 164.743988,267.326477 
	C164.918945,266.303406 165.267990,264.262238 165.591888,262.368195 
	C159.163849,259.005859 154.185333,259.285156 150.522629,262.970795 
	C146.789932,266.726868 146.771576,271.557404 149.661682,276.517700 
	C148.806778,279.654480 148.248413,281.703125 147.398224,284.822601 
	C155.729843,283.216095 162.657684,281.880249 169.978561,280.468628 
	C169.400864,278.071014 168.922302,276.084839 168.397751,273.907806 
	C166.123108,274.449310 164.365173,274.867798 161.825378,275.576721 
M354.761749,232.315842 
	C350.893066,237.307098 352.120056,242.075546 355.647491,246.743393 
	C355.071106,246.658936 354.494720,246.574493 353.918335,246.490036 
	C353.519257,248.566376 353.120148,250.642731 352.563477,253.538742 
	C360.765747,251.903397 367.536835,250.553406 374.624329,249.140320 
	C374.171875,246.811752 373.808411,244.941177 373.366669,242.667831 
	C370.715210,243.272888 368.405212,243.548004 366.291229,244.343796 
	C363.397003,245.433304 361.632477,244.589859 361.246552,241.681900 
	C360.855896,238.738144 362.408020,236.959763 365.476013,236.782822 
	C366.718475,236.711182 367.968475,236.770996 369.142242,236.770996 
	C370.853424,230.465500 369.909424,228.747635 363.867645,228.914932 
	C360.968872,228.995209 358.116486,230.751663 354.761749,232.315842 
M283.990967,329.601227 
	C283.990967,327.684906 283.990967,325.768616 283.990967,323.798767 
	C278.750946,323.798767 274.196991,323.798767 269.637115,323.798767 
	C269.637115,328.889465 269.637115,333.593201 269.637115,338.347656 
	C274.596222,338.347656 279.150330,338.347656 283.990967,338.347656 
	C283.990967,335.498779 283.990967,333.020996 283.990967,329.601227 
M322.810822,260.331238 
	C326.227631,260.331238 329.644409,260.331238 332.939331,260.331238 
	C332.939331,254.900146 332.939331,250.178482 332.939331,245.502029 
	C328.149200,245.502029 323.736145,245.502029 318.904144,245.502029 
	C318.904144,249.746292 318.711212,253.715454 319.041260,257.640656 
	C319.122742,258.609650 320.904755,259.435638 322.810822,260.331238 
z"/>
<path fill="#FF3B3B" opacity="1.000000" stroke="none" 
	d="
M81.946083,185.000000 
	C81.946083,174.382599 81.946083,164.265198 81.946083,153.915222 
	C194.850052,153.915222 307.215088,153.915222 419.861389,153.915222 
	C419.861389,173.580811 419.861389,192.991913 419.861389,212.711853 
	C307.404236,212.711853 195.028122,212.711853 81.946083,212.711853 
	C81.946083,203.678040 81.946083,194.589020 81.946083,185.000000 
M389.499969,209.134323 
	C398.404053,209.134323 407.308136,209.134323 416.005554,209.134323 
	C416.005554,191.373566 416.005554,174.475479 416.005554,157.572220 
	C305.716888,157.572220 195.854355,157.572220 85.883743,157.572220 
	C85.883743,174.858826 85.883743,191.766541 85.883743,209.134323 
	C186.965347,209.134323 287.732635,209.134323 389.499969,209.134323 
z"/>
<path fill="#FFFCFC" opacity="1.000000" stroke="none" 
	d="
M266.695160,301.155457 
	C267.711243,299.595825 268.698364,298.067291 268.724152,296.522705 
	C268.873871,287.558899 268.797363,278.591278 268.797363,269.342896 
	C274.282227,269.342896 279.341675,269.342896 284.767639,269.342896 
	C284.767639,279.841614 284.767639,290.116882 284.767639,300.789429 
	C299.851562,300.789429 314.579926,300.789429 329.900970,300.789429 
	C329.900970,296.075897 330.110901,291.135284 329.830688,286.222626 
	C329.627686,282.663727 326.968719,281.767548 323.759827,281.802582 
	C317.273132,281.873413 310.785065,281.823669 303.885376,281.823669 
	C303.639252,278.336578 303.409485,275.081116 303.145477,271.340698 
	C314.073730,269.078278 324.620483,266.934418 335.487244,268.921051 
	C342.378113,270.180817 345.804840,273.866882 345.967346,280.862885 
	C346.233978,292.342773 346.039520,303.833405 346.039520,315.661682 
	C308.175659,315.661682 270.426392,315.661682 232.289413,315.661682 
	C232.289413,294.590851 232.289413,273.365753 232.289413,251.799469 
	C237.291229,251.799469 242.365829,251.799469 247.929398,251.799469 
	C247.929398,268.159821 247.929398,284.400177 247.929398,301.179169 
	C254.343246,301.179169 260.282684,301.179169 266.695160,301.155457 
z"/>
<path fill="#FFF8F8" opacity="1.000000" stroke="none" 
	d="
M192.663605,302.982361 
	C192.663589,307.448395 192.663589,311.417786 192.663589,316.016357 
	C190.318436,316.016357 188.387909,316.044159 186.458374,316.011932 
	C171.483414,315.761963 156.468567,316.083130 141.546646,315.056366 
	C129.802994,314.248352 124.548988,307.354980 124.671822,295.681152 
	C124.677078,295.181702 124.678535,294.679321 124.732147,294.183716 
	C126.281715,279.861694 124.693542,281.145416 140.105743,283.065582 
	C139.919037,285.632355 139.707932,288.230408 139.545456,290.831482 
	C139.200409,296.355865 141.933533,300.630768 146.984131,300.840424 
	C156.581528,301.238892 166.207199,300.955872 176.244659,300.955872 
	C176.244659,284.574341 176.244659,268.481384 176.244659,251.914963 
	C181.692245,251.914963 186.734070,251.914963 192.663620,251.914963 
	C192.663620,268.692749 192.663620,285.589233 192.663605,302.982361 
z"/>
<path fill="#FFFDFD" opacity="1.000000" stroke="none" 
	d="
M223.054565,304.998444 
	C222.735840,311.789429 223.016830,318.182556 221.971390,324.350830 
	C219.905457,336.540405 213.344925,340.674072 200.516647,338.398773 
	C200.516647,334.532990 200.438217,330.570740 200.584778,326.616821 
	C200.613068,325.853210 201.419495,324.578796 202.040314,324.462097 
	C207.068726,323.516815 206.939682,319.630829 206.956818,315.972137 
	C207.026154,301.176056 206.988037,286.379456 206.999222,271.583069 
	C206.999710,270.936401 207.095154,270.289825 207.171524,269.325562 
	C212.306808,269.325562 217.360535,269.325562 223.054565,269.325562 
	C223.054565,281.028351 223.054565,292.763611 223.054565,304.998444 
z"/>
<path fill="#FFFFFF" opacity="1.000000" stroke="none" 
	d="
M360.053284,259.592804 
	C363.869781,259.622986 367.195679,259.646423 370.521118,259.698120 
	C370.826904,259.702820 371.129913,259.887238 371.710144,260.079803 
	C371.710144,278.404266 371.710144,296.817078 371.710144,315.615021 
	C366.792572,315.615021 361.732086,315.615021 356.362122,315.615021 
	C356.263245,315.263153 355.950439,314.667419 355.949341,314.071075 
	C355.917297,297.101593 355.977905,280.131653 355.851685,263.163025 
	C355.830170,260.274170 356.801086,259.203308 360.053284,259.592804 
z"/>
<path fill="#FFF8F8" opacity="1.000000" stroke="none" 
	d="
M162.216309,275.431519 
	C164.365173,274.867798 166.123108,274.449310 168.397751,273.907806 
	C168.922302,276.084839 169.400864,278.071014 169.978561,280.468628 
	C162.657684,281.880249 155.729843,283.216095 147.398224,284.822601 
	C148.248413,281.703125 148.806778,279.654480 149.661682,276.517700 
	C146.771576,271.557404 146.789932,266.726868 150.522629,262.970795 
	C154.185333,259.285156 159.163849,259.005859 165.591888,262.368195 
	C165.267990,264.262238 164.918945,266.303406 164.743988,267.326477 
	C161.666885,268.371338 159.150818,268.803894 157.210175,270.098785 
	C156.466812,270.594818 156.405899,273.647522 157.175003,274.476318 
	C158.075134,275.446320 160.220306,275.260925 162.216309,275.431519 
z"/>
<path fill="#FFF7F7" opacity="1.000000" stroke="none" 
	d="
M355.002441,232.032410 
	C358.116486,230.751663 360.968872,228.995209 363.867645,228.914932 
	C369.909424,228.747635 370.853424,230.465500 369.142242,236.770996 
	C367.968475,236.770996 366.718475,236.711182 365.476013,236.782822 
	C362.408020,236.959763 360.855896,238.738144 361.246552,241.681900 
	C361.632477,244.589859 363.397003,245.433304 366.291229,244.343796 
	C368.405212,243.548004 370.715210,243.272888 373.366669,242.667831 
	C373.808411,244.941177 374.171875,246.811752 374.624329,249.140320 
	C367.536835,250.553406 360.765747,251.903397 352.563477,253.538742 
	C353.120148,250.642731 353.519257,248.566376 353.918335,246.490036 
	C354.494720,246.574493 355.071106,246.658936 355.647491,246.743393 
	C352.120056,242.075546 350.893066,237.307098 355.002441,232.032410 
z"/>
<path fill="#FFEFEF" opacity="1.000000" stroke="none" 
	d="
M283.990967,330.072235 
	C283.990967,333.020996 283.990967,335.498779 283.990967,338.347656 
	C279.150330,338.347656 274.596222,338.347656 269.637115,338.347656 
	C269.637115,333.593201 269.637115,328.889465 269.637115,323.798767 
	C274.196991,323.798767 278.750946,323.798767 283.990967,323.798767 
	C283.990967,325.768616 283.990967,327.684906 283.990967,330.072235 
z"/>
<path fill="#FFFBFB" opacity="1.000000" stroke="none" 
	d="
M322.357941,260.329285 
	C320.904755,259.435638 319.122742,258.609650 319.041260,257.640656 
	C318.711212,253.715454 318.904144,249.746292 318.904144,245.502029 
	C323.736145,245.502029 328.149200,245.502029 332.939331,245.502029 
	C332.939331,250.178482 332.939331,254.900146 332.939331,260.331238 
	C329.644409,260.331238 326.227631,260.331238 322.357941,260.329285 
z"/>
<path fill="#FFFDFD" opacity="1.000000" stroke="none" 
	d="
M388.999939,209.134323 
	C287.732635,209.134323 186.965347,209.134323 85.883743,209.134323 
	C85.883743,191.766541 85.883743,174.858826 85.883743,157.572220 
	C195.854355,157.572220 305.716888,157.572220 416.005554,157.572220 
	C416.005554,174.475479 416.005554,191.373566 416.005554,209.134323 
	C407.308136,209.134323 398.404053,209.134323 388.999939,209.134323 
M239.593994,205.395630 
	C241.883240,202.602692 244.172485,199.809769 246.461716,197.016830 
	C246.188980,196.752289 245.916229,196.487762 245.643494,196.223221 
	C247.080811,196.069885 248.518143,195.916550 250.039948,195.754196 
	C250.039948,194.038544 250.039948,192.599625 250.039948,191.080353 
	C248.322342,190.693146 246.792877,190.348343 244.991272,189.942184 
	C244.991272,181.576004 244.991272,173.472656 244.991272,165.207794 
	C242.925323,165.207794 241.211929,165.207794 239.078583,165.207794 
	C239.078583,175.270340 239.136307,185.048538 239.052719,194.825531 
	C239.014481,199.298981 236.525726,201.610580 232.247833,201.512253 
	C227.713120,201.408005 225.320862,198.795227 225.650696,194.111435 
	C225.879135,190.867493 226.301910,187.637222 226.662888,184.159607 
	C224.671906,184.159607 223.083038,184.159607 221.110718,184.159607 
	C220.903030,190.866760 216.796768,197.808441 223.020798,203.559402 
	C227.611786,207.801498 233.209320,207.918243 239.593994,205.395630 
M259.715424,170.249939 
	C255.668549,177.870285 256.878113,179.930878 265.400970,179.935684 
	C266.065338,179.936066 266.729675,179.935349 267.394043,179.935822 
	C275.240021,179.941391 276.601624,181.780075 274.735321,190.587372 
	C268.655182,190.587372 262.436584,190.587372 255.823654,190.587372 
	C255.928223,192.716980 256.003479,194.250168 256.073212,195.670059 
	C264.735443,195.670059 272.940308,195.670059 282.369476,195.670059 
	C281.354156,189.386856 281.432037,183.181686 279.217102,177.946579 
	C276.750702,172.117172 269.755005,175.347214 264.545410,173.759705 
	C266.108459,170.830475 267.463776,168.290558 268.931274,165.540405 
	C267.340118,164.760284 266.057281,164.131332 264.495605,163.365677 
	C262.906982,165.589951 261.473358,167.597168 259.715424,170.249939 
z"/>
<path fill="#FF3838" opacity="1.000000" stroke="none" 
	d="
M239.253998,205.594330 
	C233.209320,207.918243 227.611786,207.801498 223.020798,203.559402 
	C216.796768,197.808441 220.903030,190.866760 221.110718,184.159607 
	C223.083038,184.159607 224.671906,184.159607 226.662888,184.159607 
	C226.301910,187.637222 225.879135,190.867493 225.650696,194.111435 
	C225.320862,198.795227 227.713120,201.408005 232.247833,201.512253 
	C236.525726,201.610580 239.014481,199.298981 239.052719,194.825531 
	C239.136307,185.048538 239.078583,175.270340 239.078583,165.207794 
	C241.211929,165.207794 242.925323,165.207794 244.991272,165.207794 
	C244.991272,173.472656 244.991272,181.576004 244.991272,189.942184 
	C246.792877,190.348343 248.322342,190.693146 250.039948,191.080353 
	C250.039948,192.599625 250.039948,194.038544 250.039948,195.754196 
	C248.518143,195.916550 247.080811,196.069885 245.643494,196.223221 
	C245.916229,196.487762 246.188980,196.752289 246.461716,197.016830 
	C244.172485,199.809769 241.883240,202.602692 239.253998,205.594330 
z"/>
<path fill="#FF3838" opacity="1.000000" stroke="none" 
	d="
M259.877594,169.927155 
	C261.473358,167.597168 262.906982,165.589951 264.495605,163.365677 
	C266.057281,164.131332 267.340118,164.760284 268.931274,165.540405 
	C267.463776,168.290558 266.108459,170.830475 264.545410,173.759705 
	C269.755005,175.347214 276.750702,172.117172 279.217102,177.946579 
	C281.432037,183.181686 281.354156,189.386856 282.369476,195.670059 
	C272.940308,195.670059 264.735443,195.670059 256.073212,195.670059 
	C256.003479,194.250168 255.928223,192.716980 255.823654,190.587372 
	C262.436584,190.587372 268.655182,190.587372 274.735321,190.587372 
	C276.601624,181.780075 275.240021,179.941391 267.394043,179.935822 
	C266.729675,179.935349 266.065338,179.936066 265.400970,179.935684 
	C256.878113,179.930878 255.668549,177.870285 259.877594,169.927155 
z"/>
</svg>