<svg version="1.1" id="Layer_1" xmlns="http://www.w3.org/2000/svg" xmlns:xlink="http://www.w3.org/1999/xlink" x="0px" y="0px"
	 width="100%" viewBox="0 0 909 789" enable-background="new 0 0 909 789" xml:space="preserve">
<path fill="none" opacity="1.000000" stroke="none" 
	d="
M515.000000,790.000000 
	C343.333374,790.000000 172.166763,790.000000 1.000115,790.000000 
	C1.000077,527.000122 1.000077,264.000244 1.000038,1.000291 
	C303.999786,1.000194 606.999573,1.000194 909.999512,1.000097 
	C909.999634,263.999695 909.999634,526.999390 909.999817,789.999512 
	C778.500000,790.000000 647.000000,790.000000 515.000000,790.000000 
M441.500000,759.077759 
	C524.828247,759.076355 608.156433,759.053833 691.484680,759.084900 
	C721.304626,759.095947 747.868774,749.721680 770.473694,730.438354 
	C799.552490,705.632690 813.454346,673.571289 813.454651,635.422852 
	C813.455994,476.767151 813.400269,318.111420 813.508606,159.455780 
	C813.522888,138.567032 809.872864,118.529655 799.649170,100.336082 
	C776.237305,58.673485 740.055176,36.525845 692.440796,36.356209 
	C532.620605,35.786804 372.796936,36.052929 212.974823,36.218693 
	C183.503754,36.249260 156.949081,45.666485 134.463623,64.901840 
	C105.262146,89.882439 91.376556,122.027588 91.385544,160.378967 
	C91.422562,318.368042 91.393211,476.357117 91.412132,634.346191 
	C91.414200,651.650696 93.548515,668.720886 100.896454,684.502991 
	C123.328743,732.683777 161.092468,758.513916 214.516769,758.926575 
	C289.840393,759.508423 365.171875,759.076294 441.500000,759.077759 
z"/>
<path fill="#F11420" opacity="1.000000" stroke="none" 
	d="
M441.000000,759.077759 
	C365.171875,759.076294 289.840393,759.508423 214.516769,758.926575 
	C161.092468,758.513916 123.328743,732.683777 100.896454,684.502991 
	C93.548515,668.720886 91.414200,651.650696 91.412132,634.346191 
	C91.393211,476.357117 91.422562,318.368042 91.385544,160.378967 
	C91.376556,122.027588 105.262146,89.882439 134.463623,64.901840 
	C156.949081,45.666485 183.503754,36.249260 212.974823,36.218693 
	C372.796936,36.052929 532.620605,35.786804 692.440796,36.356209 
	C740.055176,36.525845 776.237305,58.673485 799.649170,100.336082 
	C809.872864,118.529655 813.522888,138.567032 813.508606,159.455780 
	C813.400269,318.111420 813.455994,476.767151 813.454651,635.422852 
	C813.454346,673.571289 799.552490,705.632690 770.473694,730.438354 
	C747.868774,749.721680 721.304626,759.095947 691.484680,759.084900 
	C608.156433,759.053833 524.828247,759.076355 441.000000,759.077759 
M544.519287,180.942291 
	C540.769165,180.942291 537.019043,180.942291 532.907593,180.942291 
	C533.639954,269.569580 534.366028,357.434570 535.094055,445.527283 
	C534.439392,444.663239 533.732239,443.828003 533.131165,442.922333 
	C509.746918,407.687805 486.415405,372.418213 462.986389,337.213501 
	C428.862549,285.938660 394.649078,234.723450 360.559052,183.426178 
	C358.614502,180.500122 356.574188,179.236206 352.928253,179.261597 
	C331.766571,179.408966 310.602875,179.260025 289.439880,179.231674 
	C287.859131,179.229553 286.278198,179.386658 284.286072,179.491364 
	C284.286072,326.877533 284.286072,473.746521 284.286072,620.774719 
	C315.476776,620.774719 346.397827,620.774719 378.042053,620.774719 
	C377.236389,530.219238 376.433044,439.926453 375.624756,349.075317 
	C382.541962,360.239410 389.137726,371.157867 395.995422,381.909210 
	C446.390625,460.917694 496.854645,539.882385 547.195129,618.925659 
	C548.810730,621.462341 550.572021,622.015564 553.265869,622.009949 
	C576.261841,621.961975 599.257935,622.024353 622.254028,622.033508 
	C623.536926,622.034058 624.819946,621.856140 626.592834,621.725037 
	C626.592834,474.736877 626.592834,328.027252 626.592834,180.943756 
	C599.456604,180.943756 572.484497,180.943756 544.519287,180.942291 
z"/>
<path fill="#FFFEFE" opacity="1.000000" stroke="none" 
	d="
M545.015808,180.943024 
	C572.484497,180.943756 599.456604,180.943756 626.592834,180.943756 
	C626.592834,328.027252 626.592834,474.736877 626.592834,621.725037 
	C624.819946,621.856140 623.536926,622.034058 622.254028,622.033508 
	C599.257935,622.024353 576.261841,621.961975 553.265869,622.009949 
	C550.572021,622.015564 548.810730,621.462341 547.195129,618.925659 
	C496.854645,539.882385 446.390625,460.917694 395.995422,381.909210 
	C389.137726,371.157867 382.541962,360.239410 375.624756,349.075317 
	C376.433044,439.926453 377.236389,530.219238 378.042053,620.774719 
	C346.397827,620.774719 315.476776,620.774719 284.286072,620.774719 
	C284.286072,473.746521 284.286072,326.877533 284.286072,179.491364 
	C286.278198,179.386658 287.859131,179.229553 289.439880,179.231674 
	C310.602875,179.260025 331.766571,179.408966 352.928253,179.261597 
	C356.574188,179.236206 358.614502,180.500122 360.559052,183.426178 
	C394.649078,234.723450 428.862549,285.938660 462.986389,337.213501 
	C486.415405,372.418213 509.746918,407.687805 533.131165,442.922333 
	C533.732239,443.828003 534.439392,444.663239 535.094055,445.527283 
	C534.366028,357.434570 533.639954,269.569580 532.907593,180.942291 
	C537.019043,180.942291 540.769165,180.942291 545.015808,180.943024 
z"/>
</svg>