<?xml version="1.0" standalone="no"?>
<!DOCTYPE svg PUBLIC "-//W3C//DTD SVG 20010904//EN"
 "http://www.w3.org/TR/2001/REC-SVG-20010904/DTD/svg10.dtd">
<svg version="1.0" xmlns="http://www.w3.org/2000/svg"
 width="909.000000pt" height="909.000000pt" viewBox="0 0 909.000000 909.000000"
 preserveAspectRatio="xMidYMid meet">
<metadata>
Created by potrace 1.14, written by Peter Selinger 2001-2017
</metadata>
<g transform="translate(0.000000,909.000000) scale(0.100000,-0.100000)"
fill="#000000" stroke="none">
<path d="M1980 8119 c-169 -20 -340 -79 -479 -167 -305 -192 -486 -450 -564
-802 -21 -95 -21 -99 -24 -2520 -3 -1532 0 -2480 6 -2575 17 -253 72 -415 213
-626 199 -299 496 -478 861 -518 66 -8 872 -11 2559 -11 2701 0 2562 -3 2748
59 187 63 339 158 485 305 180 180 285 384 330 640 13 78 15 380 15 2616 0
2726 2 2593 -50 2770 -48 159 -157 336 -298 482 -175 181 -361 282 -617 335
-73 15 -292 17 -2595 19 -1392 1 -2548 -2 -2590 -7z m1592 -1430 c11 -6 414
-602 895 -1325 481 -724 877 -1313 880 -1310 3 2 0 487 -6 1078 -6 590 -11
1180 -11 1311 l0 237 470 0 470 0 0 -2205 0 -2205 -383 0 c-291 0 -387 3 -399
13 -18 14 -1599 2489 -1692 2650 -16 26 -30 46 -33 43 -2 -2 0 -582 6 -1287 6
-706 11 -1312 11 -1346 l0 -63 -470 0 -470 0 0 2203 c0 1212 3 2207 7 2210 11
12 702 8 725 -4z"/>
</g>
</svg>
