<svg version="1.1" id="Layer_1" xmlns="http://www.w3.org/2000/svg"
	xmlns:xlink="http://www.w3.org/1999/xlink" x="0px" y="0px"
	width="100%" viewBox="0 0 500 500" enable-background="new 0 0 500 500" xml:space="preserve">
<path fill="#FF3131" opacity="1.000000" stroke="none" 
	d="
M338.000000,501.000000 
	C225.333359,501.000000 113.166718,501.000000 1.000060,501.000000 
	C1.000040,334.333405 1.000040,167.666794 1.000020,1.000150 
	C167.666565,1.000100 334.333130,1.000100 500.999756,1.000050 
	C500.999847,167.666519 500.999847,334.333038 500.999939,500.999786 
	C446.833344,501.000000 392.666656,501.000000 338.000000,501.000000 
M96.807777,290.498962 
	C96.807777,298.258392 96.807777,306.017792 96.807777,313.719299 
	C199.887405,313.719299 302.311462,313.719299 405.279114,313.719299 
	C405.279114,253.061844 405.279114,192.694534 405.279114,132.312393 
	C302.390015,132.312393 199.662369,132.312393 96.807793,132.312393 
	C96.807793,184.922852 96.807793,237.210892 96.807777,290.498962 
z"/>
<path fill="#FFFBFB" opacity="1.000000" stroke="none" 
	d="
M96.807785,289.998962 
	C96.807793,237.210892 96.807793,184.922852 96.807793,132.312393 
	C199.662369,132.312393 302.390015,132.312393 405.279114,132.312393 
	C405.279114,192.694534 405.279114,253.061844 405.279114,313.719299 
	C302.311462,313.719299 199.887405,313.719299 96.807777,313.719299 
	C96.807777,306.017792 96.807777,298.258392 96.807785,289.998962 
M304.500000,309.992920 
	C336.604370,309.992920 368.708710,309.992920 400.958069,309.992920 
	C400.958069,270.784729 400.958069,232.086670 400.958069,193.360229 
	C300.644531,193.360229 200.642303,193.360229 100.523773,193.360229 
	C100.523773,232.292313 100.523773,270.870850 100.523773,309.992920 
	C168.344482,309.992920 235.922241,309.992920 304.500000,309.992920 
M151.500000,136.007019 
	C134.735504,136.007019 117.971001,136.007019 101.269440,136.007019 
	C101.269440,154.340149 101.269440,172.053711 101.269440,189.684631 
	C201.357712,189.684631 301.075378,189.684631 400.736847,189.684631 
	C400.736847,171.660553 400.736847,153.947388 400.736847,136.007019 
	C317.743927,136.007019 235.121964,136.007019 151.500000,136.007019 
z"/>
<path fill="#FF3232" opacity="1.000000" stroke="none" 
	d="
M304.000000,309.992920 
	C235.922241,309.992920 168.344482,309.992920 100.523773,309.992920 
	C100.523773,270.870850 100.523773,232.292313 100.523773,193.360229 
	C200.642303,193.360229 300.644531,193.360229 400.958069,193.360229 
	C400.958069,232.086670 400.958069,270.784729 400.958069,309.992920 
	C368.708710,309.992920 336.604370,309.992920 304.000000,309.992920 
M285.664673,267.955078 
	C284.221832,267.869568 282.779022,267.784027 280.865479,267.670593 
	C280.865479,258.134888 280.865479,248.897568 280.865479,239.591797 
	C275.960327,239.591797 271.555145,239.591797 266.598389,239.591797 
	C266.598389,249.163727 266.598389,258.415497 266.598389,267.632996 
	C260.297211,267.632996 254.558548,267.632996 248.251099,267.632996 
	C248.251099,252.926941 248.251099,238.531708 248.251099,224.052734 
	C243.268570,224.052734 238.865234,224.052734 234.291290,224.052734 
	C234.291290,243.085434 234.291290,261.820251 234.291290,280.750031 
	C268.102325,280.750031 301.661102,280.750031 335.313446,280.750031 
	C335.313446,269.892273 335.645294,259.271179 335.181396,248.684952 
	C334.927948,242.901062 331.661469,239.874924 326.051605,239.104416 
	C316.559082,237.800613 307.213257,238.960068 297.587494,241.375732 
	C297.762451,244.539658 297.921692,247.418854 298.096619,250.582153 
	C304.254547,250.582153 309.895081,250.571381 315.535553,250.586594 
	C318.463440,250.594498 320.979706,251.313614 321.073242,254.865204 
	C321.185272,259.118683 321.099670,263.377380 321.099670,267.955170 
	C309.238586,267.955170 297.937317,267.955170 285.664673,267.955078 
M199.090424,254.500031 
	C199.090424,244.399963 199.090424,234.299896 199.090424,224.030365 
	C194.151489,224.030365 189.757858,224.030365 184.877579,224.030365 
	C184.877579,238.680420 184.877579,253.069763 184.877579,267.824066 
	C176.124374,267.824066 167.840515,268.104828 159.587311,267.723083 
	C154.291412,267.478119 151.846542,264.057068 152.022095,258.547394 
	C152.094635,256.270691 152.326065,253.999008 152.483688,251.746887 
	C138.939178,250.201508 139.887314,249.082535 138.992203,261.511780 
	C138.141129,273.329468 142.845139,278.963135 154.596588,280.339752 
	C161.665573,281.167816 168.871567,280.893280 176.017593,280.978424 
	C183.609360,281.068878 191.203049,280.998779 199.090424,280.998779 
	C199.090424,272.089600 199.090424,263.794830 199.090424,254.500031 
M211.830460,282.897247 
	C210.473907,284.733307 209.108536,286.562927 207.764877,288.408356 
	C207.168991,289.226776 206.174973,290.050995 206.123657,290.917694 
	C205.928757,294.209686 206.045135,297.520111 206.045135,300.743927 
	C216.797699,303.146790 222.891647,299.598755 224.983261,289.230438 
	C225.989426,284.242828 225.994003,279.010803 226.059723,273.884460 
	C226.206039,262.469513 226.105377,251.051407 226.105377,239.445435 
	C221.141800,239.445435 216.752243,239.445435 211.876328,239.445435 
	C211.876328,253.815796 211.876328,267.906403 211.830460,282.897247 
M344.042877,247.502197 
	C344.042877,258.564209 344.042877,269.626251 344.042877,280.745117 
	C349.079437,280.745117 353.491943,280.745117 358.122223,280.745117 
	C358.122223,264.140381 358.122223,247.789932 358.122223,231.266388 
	C353.358276,231.266388 348.839569,231.266388 344.042877,231.266388 
	C344.042877,236.582184 344.042877,241.543060 344.042877,247.502197 
M159.389343,238.155258 
	C159.950180,241.303894 160.511002,244.452515 161.071838,247.601151 
	C160.827286,247.526138 160.582733,247.451126 160.338181,247.376114 
	C160.147232,249.185379 159.956268,250.994644 159.713715,253.292831 
	C163.797318,252.450073 166.716904,251.833328 169.642731,251.247650 
	C172.681015,250.639435 175.725357,250.061310 179.160110,249.393616 
	C178.546555,247.222122 178.075592,245.555252 177.546478,243.682587 
	C175.250885,244.220535 173.302933,245.103043 171.418900,244.982925 
	C169.926910,244.887817 168.513351,243.562790 167.064972,242.783905 
	C168.101700,241.312805 168.908585,239.545853 170.267807,238.489838 
	C170.995941,237.924149 172.674881,238.582275 173.877472,238.684113 
	C175.700607,233.086136 174.775787,231.459045 169.355942,231.186096 
	C164.758087,230.954544 161.320770,232.890137 159.389343,238.155258 
M356.811035,207.517059 
	C356.752625,202.407776 352.378876,203.301956 349.907562,203.507370 
	C340.969666,204.250259 338.564026,212.011490 342.673340,218.225449 
	C342.009857,221.102737 341.609436,222.839279 340.993530,225.510300 
	C348.416199,224.040146 354.521484,222.830902 360.908661,221.565826 
	C360.362122,219.400635 359.935089,217.708893 359.457214,215.815781 
	C357.462463,216.291428 355.882294,216.829224 354.262604,217.007339 
	C352.762360,217.172318 350.839844,217.474945 349.819397,216.732590 
	C349.041107,216.166382 348.774078,213.655319 349.381500,212.743851 
	C350.123810,211.630096 352.060059,211.357208 353.400513,210.583054 
	C354.532013,209.929581 355.549988,209.079590 356.811035,207.517059 
M314.844086,231.681641 
	C317.777618,231.681641 320.711151,231.681641 323.919464,231.681641 
	C323.919464,226.952850 323.919464,222.761642 323.919464,218.425919 
	C319.635895,218.425919 315.629395,218.425919 311.210999,218.425919 
	C311.210999,222.217056 311.019012,225.673782 311.336365,229.083099 
	C311.423492,230.018997 313.034790,230.813004 314.844086,231.681641 
M279.338287,287.942627 
	C275.430908,287.942627 271.523529,287.942627 267.409180,287.942627 
	C267.409180,292.439301 267.409180,296.487457 267.409180,300.768433 
	C271.687561,300.768433 275.711823,300.768433 279.974548,300.768433 
	C279.974548,296.549042 279.974548,292.612854 279.338287,287.942627 
z"/>
<path fill="#FF3232" opacity="1.000000" stroke="none" 
	d="
M152.000000,136.007019 
	C235.121964,136.007019 317.743927,136.007019 400.736847,136.007019 
	C400.736847,153.947388 400.736847,171.660553 400.736847,189.684631 
	C301.075378,189.684631 201.357712,189.684631 101.269440,189.684631 
	C101.269440,172.053711 101.269440,154.340149 101.269440,136.007019 
	C117.971001,136.007019 134.735504,136.007019 152.000000,136.007019 
M396.327942,185.899139 
	C396.628021,185.540634 397.189484,185.182907 397.190552,184.823502 
	C397.234558,170.047989 397.228180,155.272324 397.228180,140.268829 
	C299.557251,140.268829 202.220398,140.268829 104.734650,140.268829 
	C104.734650,155.600464 104.734650,170.662796 104.734650,185.984482 
	C201.831360,185.984482 298.591125,185.984482 396.327942,185.899139 
z"/>
<path fill="#FFFCFC" opacity="1.000000" stroke="none" 
	d="
M286.150391,267.955139 
	C297.937317,267.955170 309.238586,267.955170 321.099670,267.955170 
	C321.099670,263.377380 321.185272,259.118683 321.073242,254.865204 
	C320.979706,251.313614 318.463440,250.594498 315.535553,250.586594 
	C309.895081,250.571381 304.254547,250.582153 298.096619,250.582153 
	C297.921692,247.418854 297.762451,244.539658 297.587494,241.375732 
	C307.213257,238.960068 316.559082,237.800613 326.051605,239.104416 
	C331.661469,239.874924 334.927948,242.901062 335.181396,248.684952 
	C335.645294,259.271179 335.313446,269.892273 335.313446,280.750031 
	C301.661102,280.750031 268.102325,280.750031 234.291290,280.750031 
	C234.291290,261.820251 234.291290,243.085434 234.291290,224.052734 
	C238.865234,224.052734 243.268570,224.052734 248.251099,224.052734 
	C248.251099,238.531708 248.251099,252.926941 248.251099,267.632996 
	C254.558548,267.632996 260.297211,267.632996 266.598389,267.632996 
	C266.598389,258.415497 266.598389,249.163727 266.598389,239.591797 
	C271.555145,239.591797 275.960327,239.591797 280.865479,239.591797 
	C280.865479,248.897568 280.865479,258.134888 280.865479,267.670593 
	C282.779022,267.784027 284.221832,267.869568 286.150391,267.955139 
z"/>
<path fill="#FFFEFE" opacity="1.000000" stroke="none" 
	d="
M199.090424,255.000031 
	C199.090424,263.794830 199.090424,272.089600 199.090424,280.998779 
	C191.203049,280.998779 183.609360,281.068878 176.017593,280.978424 
	C168.871567,280.893280 161.665573,281.167816 154.596588,280.339752 
	C142.845139,278.963135 138.141129,273.329468 138.992203,261.511780 
	C139.887314,249.082535 138.939178,250.201508 152.483688,251.746887 
	C152.326065,253.999008 152.094635,256.270691 152.022095,258.547394 
	C151.846542,264.057068 154.291412,267.478119 159.587311,267.723083 
	C167.840515,268.104828 176.124374,267.824066 184.877579,267.824066 
	C184.877579,253.069763 184.877579,238.680420 184.877579,224.030365 
	C189.757858,224.030365 194.151489,224.030365 199.090424,224.030365 
	C199.090424,234.299896 199.090424,244.399963 199.090424,255.000031 
z"/>
<path fill="#FFFCFC" opacity="1.000000" stroke="none" 
	d="
M211.853394,282.447144 
	C211.876328,267.906403 211.876328,253.815796 211.876328,239.445435 
	C216.752243,239.445435 221.141800,239.445435 226.105377,239.445435 
	C226.105377,251.051407 226.206039,262.469513 226.059723,273.884460 
	C225.994003,279.010803 225.989426,284.242828 224.983261,289.230438 
	C222.891647,299.598755 216.797699,303.146790 206.045135,300.743927 
	C206.045135,297.520111 205.928757,294.209686 206.123657,290.917694 
	C206.174973,290.050995 207.168991,289.226776 207.764877,288.408356 
	C209.108536,286.562927 210.473907,284.733307 211.853394,282.447144 
z"/>
<path fill="#FFFEFE" opacity="1.000000" stroke="none" 
	d="
M344.042877,247.003067 
	C344.042877,241.543060 344.042877,236.582184 344.042877,231.266388 
	C348.839569,231.266388 353.358276,231.266388 358.122223,231.266388 
	C358.122223,247.789932 358.122223,264.140381 358.122223,280.745117 
	C353.491943,280.745117 349.079437,280.745117 344.042877,280.745117 
	C344.042877,269.626251 344.042877,258.564209 344.042877,247.003067 
z"/>
<path fill="#FFF5F5" opacity="1.000000" stroke="none" 
	d="
M159.530273,237.787598 
	C161.320770,232.890137 164.758087,230.954544 169.355942,231.186096 
	C174.775787,231.459045 175.700607,233.086136 173.877472,238.684113 
	C172.674881,238.582275 170.995941,237.924149 170.267807,238.489838 
	C168.908585,239.545853 168.101700,241.312805 167.064972,242.783905 
	C168.513351,243.562790 169.926910,244.887817 171.418900,244.982925 
	C173.302933,245.103043 175.250885,244.220535 177.546478,243.682587 
	C178.075592,245.555252 178.546555,247.222122 179.160110,249.393616 
	C175.725357,250.061310 172.681015,250.639435 169.642731,251.247650 
	C166.716904,251.833328 163.797318,252.450073 159.713715,253.292831 
	C159.956268,250.994644 160.147232,249.185379 160.338181,247.376114 
	C160.582733,247.451126 160.827286,247.526138 161.071838,247.601151 
	C160.511002,244.452515 159.950180,241.303894 159.530273,237.787598 
z"/>
<path fill="#FFF6F6" opacity="1.000000" stroke="none" 
	d="
M356.714630,207.916824 
	C355.549988,209.079590 354.532013,209.929581 353.400513,210.583054 
	C352.060059,211.357208 350.123810,211.630096 349.381500,212.743851 
	C348.774078,213.655319 349.041107,216.166382 349.819397,216.732590 
	C350.839844,217.474945 352.762360,217.172318 354.262604,217.007339 
	C355.882294,216.829224 357.462463,216.291428 359.457214,215.815781 
	C359.935089,217.708893 360.362122,219.400635 360.908661,221.565826 
	C354.521484,222.830902 348.416199,224.040146 340.993530,225.510300 
	C341.609436,222.839279 342.009857,221.102737 342.673340,218.225449 
	C338.564026,212.011490 340.969666,204.250259 349.907562,203.507370 
	C352.378876,203.301956 356.752625,202.407776 356.714630,207.916824 
z"/>
<path fill="#FFF2F2" opacity="1.000000" stroke="none" 
	d="
M314.395386,231.676880 
	C313.034790,230.813004 311.423492,230.018997 311.336365,229.083099 
	C311.019012,225.673782 311.210999,222.217056 311.210999,218.425919 
	C315.629395,218.425919 319.635895,218.425919 323.919464,218.425919 
	C323.919464,222.761642 323.919464,226.952850 323.919464,231.681641 
	C320.711151,231.681641 317.777618,231.681641 314.395386,231.676880 
z"/>
<path fill="#FFFBFB" opacity="1.000000" stroke="none" 
	d="
M279.656433,288.309662 
	C279.974548,292.612854 279.974548,296.549042 279.974548,300.768433 
	C275.711823,300.768433 271.687561,300.768433 267.409180,300.768433 
	C267.409180,296.487457 267.409180,292.439301 267.409180,287.942627 
	C271.523529,287.942627 275.430908,287.942627 279.656433,288.309662 
z"/>
<path fill="#FFFEFE" opacity="1.000000" stroke="none" 
	d="
M395.839417,185.941803 
	C298.591125,185.984482 201.831360,185.984482 104.734650,185.984482 
	C104.734650,170.662796 104.734650,155.600464 104.734650,140.268829 
	C202.220398,140.268829 299.557251,140.268829 397.228180,140.268829 
	C397.228180,155.272324 397.234558,170.047989 397.190552,184.823502 
	C397.189484,185.182907 396.628021,185.540634 395.839417,185.941803 
M249.134720,173.983139 
	C251.254028,170.074387 251.113205,169.807297 245.684738,168.167496 
	C245.684738,161.055206 245.684738,153.799438 245.684738,146.227188 
	C243.791809,146.352448 242.375885,146.446121 240.491104,146.570831 
	C240.491104,155.526535 240.591492,164.152512 240.448944,172.774460 
	C240.377182,177.115570 237.768570,179.391846 233.806473,178.867447 
	C229.837357,178.342163 227.987228,176.048721 228.483749,171.960800 
	C228.818329,169.206238 229.033539,166.437164 229.290604,163.793152 
	C225.735886,162.393539 224.077026,163.265579 223.987427,166.737335 
	C223.953278,168.060043 223.684265,169.378845 223.491684,170.694946 
	C222.453766,177.788239 224.939606,181.780807 231.421600,183.411667 
	C237.907196,185.043442 243.210602,182.411530 245.667694,176.580399 
	C246.107849,175.535828 247.430374,174.863068 249.134720,173.983139 
M276.064362,157.506500 
	C271.871033,156.233154 267.677704,154.959824 263.364532,153.650085 
	C264.386475,151.757339 265.611145,149.489090 267.122833,146.689255 
	C265.425934,146.253265 263.235504,145.277679 262.942780,145.680649 
	C260.624725,148.871689 258.418854,152.215652 256.840515,155.803818 
	C256.571259,156.415939 259.277649,158.766220 260.957214,159.659241 
	C262.127136,160.281281 263.891541,159.785126 265.390381,159.788574 
	C272.606079,159.805145 273.918121,161.558563 272.061920,169.089447 
	C267.821564,169.089447 263.498199,169.263550 259.195984,169.036438 
	C255.505219,168.841583 254.393829,170.180405 255.545334,173.680374 
	C263.070801,173.680374 270.460480,173.680374 278.765015,173.680374 
	C277.987762,168.208817 277.274292,163.186142 276.064362,157.506500 
z"/>
<path fill="#FF3B3B" opacity="1.000000" stroke="none" 
	d="
M248.740097,174.000885 
	C247.430374,174.863068 246.107849,175.535828 245.667694,176.580399 
	C243.210602,182.411530 237.907196,185.043442 231.421600,183.411667 
	C224.939606,181.780807 222.453766,177.788239 223.491684,170.694946 
	C223.684265,169.378845 223.953278,168.060043 223.987427,166.737335 
	C224.077026,163.265579 225.735886,162.393539 229.290604,163.793152 
	C229.033539,166.437164 228.818329,169.206238 228.483749,171.960800 
	C227.987228,176.048721 229.837357,178.342163 233.806473,178.867447 
	C237.768570,179.391846 240.377182,177.115570 240.448944,172.774460 
	C240.591492,164.152512 240.491104,155.526535 240.491104,146.570831 
	C242.375885,146.446121 243.791809,146.352448 245.684738,146.227188 
	C245.684738,153.799438 245.684738,161.055206 245.684738,168.167496 
	C251.113205,169.807297 251.254028,170.074387 248.740097,174.000885 
z"/>
<path fill="#FF3A3A" opacity="1.000000" stroke="none" 
	d="
M276.312561,157.834976 
	C277.274292,163.186142 277.987762,168.208817 278.765015,173.680374 
	C270.460480,173.680374 263.070801,173.680374 255.545334,173.680374 
	C254.393829,170.180405 255.505219,168.841583 259.195984,169.036438 
	C263.498199,169.263550 267.821564,169.089447 272.061920,169.089447 
	C273.918121,161.558563 272.606079,159.805145 265.390381,159.788574 
	C263.891541,159.785126 262.127136,160.281281 260.957214,159.659241 
	C259.277649,158.766220 256.571259,156.415939 256.840515,155.803818 
	C258.418854,152.215652 260.624725,148.871689 262.942780,145.680649 
	C263.235504,145.277679 265.425934,146.253265 267.122833,146.689255 
	C265.611145,149.489090 264.386475,151.757339 263.364532,153.650085 
	C267.677704,154.959824 271.871033,156.233154 276.312561,157.834976 
z"/>
</svg>