<svg version="1.1" id="Layer_1" xmlns="http://www.w3.org/2000/svg" xmlns:xlink="http://www.w3.org/1999/xlink" x="0px" y="0px"
	 width="100%" viewBox="0 0 908 727" enable-background="new 0 0 908 727" xml:space="preserve">
<path fill="#FFFEFE" opacity="1.000000" stroke="none" 
	d="
M206.000000,728.000000 
	C137.677063,728.000000 69.354118,728.000000 1.015591,728.000000 
	C1.015591,485.713928 1.015591,243.427841 1.015591,1.070884 
	C303.573364,1.070884 606.146729,1.070884 908.860046,1.070884 
	C908.860046,243.333282 908.860046,485.666626 908.860046,728.000000 
	C839.234558,728.000000 769.578491,728.000000 699.462402,727.763428 
	C699.002380,727.526917 699.005676,727.053833 699.422485,726.951355 
	C726.655945,725.172119 750.463501,715.650024 770.748291,698.203125 
	C799.587463,673.398560 813.445618,641.504517 813.448914,603.553345 
	C813.462708,444.887695 813.397400,286.221985 813.510925,127.556396 
	C813.526001,106.489548 809.825989,86.298248 799.454834,67.984032 
	C775.796387,26.206038 739.356445,4.451592 691.529114,4.312931 
	C533.698120,3.855349 375.864899,4.153436 218.032547,4.125344 
	C196.929871,4.121589 176.688080,7.676893 157.757675,17.492149 
	C129.799835,31.988047 110.262901,53.919708 98.954407,83.283913 
	C93.113235,98.451385 91.413338,114.260368 91.411354,130.334229 
	C91.392670,281.999939 91.392113,433.665649 91.420876,585.331360 
	C91.422546,594.158936 91.456413,603.000854 91.930161,611.811646 
	C94.120842,652.554199 112.857834,684.057190 146.152008,707.014954 
	C164.083984,719.379883 184.331375,725.496582 205.995300,727.296509 
	C205.996979,727.531006 206.000000,728.000000 206.000000,728.000000 
z"/>
<path fill="#FEECED" opacity="1.000000" stroke="none" 
	d="
M206.462631,728.000000 
	C206.000000,728.000000 205.996979,727.531006 206.458038,727.212280 
	C209.249573,726.940674 211.580048,727.028687 213.910522,727.028870 
	C320.159241,727.037842 426.407959,727.038147 532.656677,727.041748 
	C588.106323,727.043640 643.556030,727.049683 699.005676,727.053833 
	C699.005676,727.053833 699.002380,727.526917 699.001221,727.763428 
	C534.975098,728.000000 370.950165,728.000000 206.462631,728.000000 
z"/>
<path fill="#F11420" opacity="1.000000" stroke="none" 
	d="
M699.422485,726.951355 
	C643.556030,727.049683 588.106323,727.043640 532.656677,727.041748 
	C426.407959,727.038147 320.159241,727.037842 213.910522,727.028870 
	C211.580048,727.028687 209.249573,726.940674 206.456360,726.977783 
	C184.331375,725.496582 164.083984,719.379883 146.152008,707.014954 
	C112.857834,684.057190 94.120842,652.554199 91.930161,611.811646 
	C91.456413,603.000854 91.422546,594.158936 91.420876,585.331360 
	C91.392113,433.665649 91.392670,281.999939 91.411354,130.334229 
	C91.413338,114.260368 93.113235,98.451385 98.954407,83.283913 
	C110.262901,53.919708 129.799835,31.988047 157.757675,17.492149 
	C176.688080,7.676893 196.929871,4.121589 218.032547,4.125344 
	C375.864899,4.153436 533.698120,3.855349 691.529114,4.312931 
	C739.356445,4.451592 775.796387,26.206038 799.454834,67.984032 
	C809.825989,86.298248 813.526001,106.489548 813.510925,127.556396 
	C813.397400,286.221985 813.462708,444.887695 813.448914,603.553345 
	C813.445618,641.504517 799.587463,673.398560 770.748291,698.203125 
	C750.463501,715.650024 726.655945,725.172119 699.422485,726.951355 
M376.627380,409.556824 
	C376.191406,378.907227 375.755402,348.257629 375.304260,316.541412 
	C382.587769,328.306549 389.191833,339.255890 396.065887,350.033051 
	C446.371094,428.901886 496.746399,507.726013 547.003357,586.625549 
	C548.676331,589.251953 550.433350,590.044556 553.409790,590.032593 
	C576.238831,589.940552 599.068604,590.024109 621.898132,590.035156 
	C623.330078,590.035889 624.762085,589.885437 626.636414,589.780518 
	C626.636414,442.635498 626.636414,295.927979 626.636414,149.192230 
	C595.386047,149.192230 564.453735,149.192230 532.912048,149.192230 
	C533.640320,237.404236 534.366394,325.357025 535.095154,413.629517 
	C534.433533,412.734772 533.837463,411.998779 533.315918,411.213287 
	C506.609772,370.990875 479.946259,330.740112 453.199982,290.544403 
	C422.307343,244.117386 391.315155,197.756561 360.471863,151.296844 
	C358.481201,148.298309 356.342010,147.242661 352.771667,147.269211 
	C333.776245,147.410553 314.778717,147.270660 295.781921,147.231216 
	C292.163940,147.223709 288.545959,147.230148 284.392700,147.230148 
	C284.392700,294.625214 284.392700,441.511353 284.392700,588.714722 
	C315.336029,588.714722 346.379364,588.714722 376.638000,588.714722 
	C376.638000,529.110352 376.638000,469.826050 376.627380,409.556824 
z"/>
<path fill="#FFFEFE" opacity="1.000000" stroke="none" 
	d="
M376.632690,410.049286 
	C376.638000,469.826050 376.638000,529.110352 376.638000,588.714722 
	C346.379364,588.714722 315.336029,588.714722 284.392700,588.714722 
	C284.392700,441.511353 284.392700,294.625214 284.392700,147.230148 
	C288.545959,147.230148 292.163940,147.223709 295.781921,147.231216 
	C314.778717,147.270660 333.776245,147.410553 352.771667,147.269211 
	C356.342010,147.242661 358.481201,148.298309 360.471863,151.296844 
	C391.315155,197.756561 422.307343,244.117386 453.199982,290.544403 
	C479.946259,330.740112 506.609772,370.990875 533.315918,411.213287 
	C533.837463,411.998779 534.433533,412.734772 535.095154,413.629517 
	C534.366394,325.357025 533.640320,237.404236 532.912048,149.192230 
	C564.453735,149.192230 595.386047,149.192230 626.636414,149.192230 
	C626.636414,295.927979 626.636414,442.635498 626.636414,589.780518 
	C624.762085,589.885437 623.330078,590.035889 621.898132,590.035156 
	C599.068604,590.024109 576.238831,589.940552 553.409790,590.032593 
	C550.433350,590.044556 548.676331,589.251953 547.003357,586.625549 
	C496.746399,507.726013 446.371094,428.901886 396.065887,350.033051 
	C389.191833,339.255890 382.587769,328.306549 375.304260,316.541412 
	C375.755402,348.257629 376.191406,378.907227 376.632690,410.049286 
z"/>
</svg>