<svg version="1.1" id="Layer_1" xmlns="http://www.w3.org/2000/svg" xmlns:xlink="http://www.w3.org/1999/xlink" x="0px" y="0px"
	 width="100%" viewBox="0 0 905 715" enable-background="new 0 0 905 715" xml:space="preserve">
<path fill="#F11320" opacity="1.000000" stroke="none" 
	d="
M185.000000,1.000000 
	C363.025848,1.000000 541.051697,1.000000 719.784973,1.282093 
	C748.239685,8.095459 770.943787,22.567736 788.416931,45.071453 
	C806.152161,67.912704 813.591553,93.975380 813.557739,122.786613 
	C813.372375,280.572083 813.492371,438.357880 813.415710,596.143555 
	C813.412231,603.275940 813.019470,610.483032 811.959534,617.527649 
	C806.499084,653.822021 788.256348,682.133484 757.360718,701.849487 
	C748.503845,707.501404 738.485657,711.333496 729.000000,716.000000 
	C544.974182,716.000000 360.948334,716.000000 176.300964,715.675415 
	C155.858337,708.810425 138.698898,698.054871 124.465431,682.764893 
	C101.566994,658.166748 91.345573,628.844604 91.368896,595.427673 
	C91.478760,438.016052 91.313934,280.604095 91.619064,123.192963 
	C91.642975,110.857437 93.073753,98.128006 96.346329,86.270424 
	C105.829369,51.910358 127.185974,26.688877 159.250534,10.979153 
	C167.486450,6.944042 176.398544,4.289032 185.000000,1.000000 
M626.901062,352.500031 
	C626.901062,282.761566 626.901062,213.023132 626.901062,143.348175 
	C595.336426,143.348175 564.288452,143.348175 532.913513,143.348175 
	C533.642334,231.585922 534.367798,319.408936 535.096436,407.615112 
	C534.384521,406.659637 533.780151,405.924591 533.257202,405.135529 
	C513.114380,374.741455 493.037537,344.303497 472.830017,313.952515 
	C435.372131,257.692047 397.819305,201.494843 360.393188,145.213333 
	C358.528595,142.409332 356.570984,141.270981 353.146271,141.289444 
	C331.816559,141.404419 310.485504,141.269211 289.154877,141.237442 
	C287.718933,141.235306 286.282715,141.401016 284.356354,141.518600 
	C284.356354,288.743530 284.356354,435.624542 284.356354,582.633789 
	C315.472931,582.633789 346.508087,582.633789 378.038757,582.633789 
	C377.235077,492.056763 376.434967,401.882629 375.629333,311.083160 
	C382.564331,322.276611 389.154053,333.186310 396.006104,343.928680 
	C446.314941,422.800751 496.691803,501.629395 546.951965,580.532471 
	C548.603821,583.125793 550.287476,584.046936 553.302734,584.034424 
	C576.299316,583.938660 599.296631,584.024719 622.293762,584.033875 
	C623.575256,584.034424 624.856873,583.854248 626.899658,583.700989 
	C626.899658,506.786926 626.899658,430.143494 626.901062,352.500031 
z"/>
<path fill="#FFFEFE" opacity="1.000000" stroke="none" 
	d="
M729.468628,716.000000 
	C738.485657,711.333496 748.503845,707.501404 757.360718,701.849487 
	C788.256348,682.133484 806.499084,653.822021 811.959534,617.527649 
	C813.019470,610.483032 813.412231,603.275940 813.415710,596.143555 
	C813.492371,438.357880 813.372375,280.572083 813.557739,122.786613 
	C813.591553,93.975380 806.152161,67.912704 788.416931,45.071453 
	C770.943787,22.567736 748.239685,8.095459 720.246216,1.282093 
	C781.974854,1.000000 843.949646,1.000000 905.962280,1.000000 
	C905.962280,239.211456 905.962280,477.422943 905.962280,716.000000 
	C847.312927,716.000000 788.625122,716.000000 729.468628,716.000000 
z"/>
<path fill="#FFFFFF" opacity="1.000000" stroke="none" 
	d="
M184.531342,1.000000 
	C176.398544,4.289032 167.486450,6.944042 159.250534,10.979153 
	C127.185974,26.688877 105.829369,51.910358 96.346329,86.270424 
	C93.073753,98.128006 91.642975,110.857437 91.619064,123.192963 
	C91.313934,280.604095 91.478760,438.016052 91.368896,595.427673 
	C91.345573,628.844604 101.566994,658.166748 124.465431,682.764893 
	C138.698898,698.054871 155.858337,708.810425 175.839722,715.675415 
	C117.690430,716.000000 59.380856,716.000000 1.035642,716.000000 
	C1.035642,477.787506 1.035642,239.575027 1.035642,1.000000 
	C62.020416,1.000000 123.041550,1.000000 184.531342,1.000000 
z"/>
<path fill="#FFFEFE" opacity="1.000000" stroke="none" 
	d="
M626.900391,353.000061 
	C626.899658,430.143494 626.899658,506.786926 626.899658,583.700989 
	C624.856873,583.854248 623.575256,584.034424 622.293762,584.033875 
	C599.296631,584.024719 576.299316,583.938660 553.302734,584.034424 
	C550.287476,584.046936 548.603821,583.125793 546.951965,580.532471 
	C496.691803,501.629395 446.314941,422.800751 396.006104,343.928680 
	C389.154053,333.186310 382.564331,322.276611 375.629333,311.083160 
	C376.434967,401.882629 377.235077,492.056763 378.038757,582.633789 
	C346.508087,582.633789 315.472931,582.633789 284.356354,582.633789 
	C284.356354,435.624542 284.356354,288.743530 284.356354,141.518600 
	C286.282715,141.401016 287.718933,141.235306 289.154877,141.237442 
	C310.485504,141.269211 331.816559,141.404419 353.146271,141.289444 
	C356.570984,141.270981 358.528595,142.409332 360.393188,145.213333 
	C397.819305,201.494843 435.372131,257.692047 472.830017,313.952515 
	C493.037537,344.303497 513.114380,374.741455 533.257202,405.135529 
	C533.780151,405.924591 534.384521,406.659637 535.096436,407.615112 
	C534.367798,319.408936 533.642334,231.585922 532.913513,143.348175 
	C564.288452,143.348175 595.336426,143.348175 626.901062,143.348175 
	C626.901062,213.023132 626.901062,282.761566 626.900391,353.000061 
z"/>
</svg>