<svg version="1.1" id="Layer_1" xmlns="http://www.w3.org/2000/svg" xmlns:xlink="http://www.w3.org/1999/xlink" x="0px" y="0px"
	 width="100%" viewBox="0 0 500 500" enable-background="new 0 0 500 500" xml:space="preserve">
<path fill="#FF3131" opacity="1.000000" stroke="none" 
	d="
M283.000000,501.000000 
	C188.666687,501.000000 94.833382,501.000000 1.000050,501.000000 
	C1.000034,334.333405 1.000034,167.666794 1.000017,1.000140 
	C167.666565,1.000093 334.333130,1.000093 500.999756,1.000047 
	C500.999847,167.666519 500.999847,334.333038 500.999939,500.999786 
	C428.500000,501.000000 356.000000,501.000000 283.000000,501.000000 
M311.499084,304.199646 
	C341.932831,304.199646 372.366577,304.199646 402.934265,304.199646 
	C402.934265,268.477631 402.934265,233.372849 402.934265,198.083160 
	C301.591461,198.083160 200.471466,198.083160 99.219376,198.083160 
	C99.219376,233.476776 99.219376,268.699829 99.219376,304.199646 
	C169.873962,304.199646 240.186493,304.199646 311.499084,304.199646 
z"/>
<path fill="#FFF4F4" opacity="1.000000" stroke="none" 
	d="
M310.999054,304.199646 
	C240.186493,304.199646 169.873962,304.199646 99.219376,304.199646 
	C99.219376,268.699829 99.219376,233.476776 99.219376,198.083160 
	C200.471466,198.083160 301.591461,198.083160 402.934265,198.083160 
	C402.934265,233.372849 402.934265,268.477631 402.934265,304.199646 
	C372.366577,304.199646 341.932831,304.199646 310.999054,304.199646 
M358.499634,296.453949 
	C370.604126,296.453949 382.708588,296.453949 394.920593,296.453949 
	C394.920593,265.826294 394.920593,235.815994 394.920593,205.945953 
	C298.611572,205.945953 202.745560,205.945953 106.847260,205.945953 
	C106.847260,236.226730 106.847260,266.106018 106.847260,296.454071 
	C190.654068,296.454071 274.076843,296.454071 358.499634,296.453949 
z"/>
<path fill="#FF3333" opacity="1.000000" stroke="none" 
	d="
M357.999634,296.454010 
	C274.076843,296.454071 190.654068,296.454071 106.847260,296.454071 
	C106.847260,266.106018 106.847260,236.226730 106.847260,205.945953 
	C202.745560,205.945953 298.611572,205.945953 394.920593,205.945953 
	C394.920593,235.815994 394.920593,265.826294 394.920593,296.453949 
	C382.708588,296.453949 370.604126,296.453949 357.999634,296.454010 
M230.247574,241.763245 
	C227.319122,241.763245 224.390686,241.763245 220.979034,241.763245 
	C220.979034,249.704346 220.979034,256.955902 220.979034,264.249390 
	C216.050980,264.249390 211.639740,264.249390 206.562241,264.249390 
	C206.562241,252.432953 206.562241,240.884750 206.562241,229.321991 
	C202.450134,229.321991 199.011749,229.321991 195.363358,229.321991 
	C195.363358,244.603226 195.363358,259.635376 195.363358,274.719635 
	C222.395035,274.719635 249.114502,274.719635 276.062256,274.719635 
	C276.062256,266.144562 276.198029,257.850189 276.012909,249.562958 
	C275.896027,244.329651 272.374390,241.460846 267.641357,241.364914 
	C260.456207,241.219299 253.251816,242.022003 246.275787,242.409637 
	C246.275787,245.934448 246.275787,248.170334 246.275787,250.738602 
	C251.114990,250.738602 255.585953,250.810013 260.053345,250.714188 
	C263.167450,250.647400 264.739075,252.094467 264.821381,255.123306 
	C264.901520,258.072052 264.838806,261.024658 264.838806,264.212006 
	C253.947235,264.212006 243.583633,264.212006 233.340179,264.212006 
	C233.083099,263.594177 232.855072,263.298859 232.852005,263.001282 
	C232.795395,257.509277 232.876953,252.012573 232.660492,246.527481 
	C232.597961,244.942688 231.695465,243.391037 230.247574,241.763245 
M337.786865,236.959885 
	C337.935913,242.782440 338.171600,248.604431 338.208527,254.427704 
	C338.242157,259.733368 338.534637,265.103027 337.845001,270.329956 
	C337.095947,276.007416 331.663208,278.504547 324.489502,277.242065 
	C318.869995,276.253082 316.259583,272.716583 317.028015,266.914673 
	C317.302856,264.839661 317.894745,262.806671 318.393433,260.518097 
	C316.013123,259.735138 314.020233,259.079620 312.109650,258.451202 
	C306.095001,269.176666 308.157074,279.129242 316.949615,283.242188 
	C329.284943,289.012390 341.211426,284.027496 346.015106,272.129700 
	C351.109009,272.129700 355.685547,272.249268 360.253052,272.097473 
	C365.231964,271.932007 370.194122,270.997101 372.401489,265.879486 
	C374.611816,260.755188 371.895355,256.414948 368.539368,252.800323 
	C366.365631,250.459076 363.497284,248.762726 360.204865,246.206512 
	C367.090179,242.822891 371.967590,240.426010 377.139069,237.884613 
	C376.053406,235.573563 375.095734,233.534927 373.766235,230.704803 
	C367.173065,234.300812 360.835876,237.460724 354.820160,241.145462 
	C350.990387,243.491272 351.085236,246.908112 354.448059,250.198364 
	C357.296234,252.985092 360.328094,255.604645 362.972687,258.570984 
	C364.473938,260.254852 365.251343,262.572632 362.250763,263.833466 
	C353.446716,267.532959 346.441986,263.120819 346.254303,253.662277 
	C346.100006,245.885422 346.222809,238.103058 346.222809,230.323181 
	C342.662506,230.323181 340.256561,230.323181 337.752441,230.323181 
	C337.752441,232.451141 337.752441,234.256821 337.786865,236.959885 
M155.613632,259.180481 
	C155.527374,260.791809 155.441116,262.403107 155.325790,264.557404 
	C150.884125,264.557404 146.770401,264.557831 142.656677,264.557281 
	C129.848358,264.555542 129.518280,264.231750 129.561874,251.318451 
	C126.500305,251.318451 123.433662,251.318451 119.745094,251.318451 
	C119.453018,254.912109 118.886803,258.507294 118.930115,262.095062 
	C119.004860,268.286865 122.053886,273.200348 127.779060,273.705994 
	C140.735443,274.850311 153.784454,274.945770 166.757172,275.466248 
	C166.757172,259.362000 166.757172,244.457870 166.757172,229.465668 
	C162.969299,229.465668 159.446533,229.465668 155.613693,229.465668 
	C155.613693,239.311493 155.613693,248.777054 155.613632,259.180481 
M175.687836,280.164917 
	C170.042938,282.593384 173.870636,287.233704 172.710648,290.731384 
	C181.638489,292.414307 187.082870,289.791962 187.653122,281.683563 
	C188.577042,268.546539 187.901886,255.297073 187.901886,241.978851 
	C184.612762,241.978851 181.029892,241.978851 177.158936,241.978851 
	C177.158936,250.766312 177.249496,259.237976 177.118820,267.706238 
	C177.058075,271.643433 176.567673,275.574036 175.687836,280.164917 
M284.742645,274.991638 
	C287.862366,274.991638 290.982117,274.991638 294.240997,274.991638 
	C294.240997,261.447510 294.240997,248.313187 294.240997,235.154785 
	C290.386108,235.154785 286.957825,235.154785 283.040466,235.154785 
	C283.040466,246.136642 282.994873,256.882965 283.075500,267.628326 
	C283.093536,270.034821 283.553772,272.438019 284.742645,274.991638 
M146.908173,240.734070 
	C146.750854,239.163513 146.720993,236.260330 146.416229,236.231201 
	C143.746582,235.975815 140.417313,235.318817 138.497894,236.600052 
	C136.632645,237.845093 135.555786,241.178177 135.338272,243.698410 
	C135.163589,245.722351 137.583771,247.905167 135.109085,250.001892 
	C136.077545,250.746887 137.140381,252.223862 137.998505,252.113190 
	C142.248474,251.565125 146.444382,250.597748 150.953979,249.720901 
	C150.488464,247.997177 150.121719,246.639175 149.872528,245.716522 
	C146.811935,244.332932 142.980423,249.481628 141.536987,244.313995 
	C140.696472,241.304901 143.598389,240.695160 146.908173,240.734070 
M287.612915,212.964569 
	C285.403870,214.678238 281.792206,216.062454 281.295258,218.178268 
	C280.421326,221.898972 281.451996,226.067032 281.704803,230.383957 
	C286.587433,229.429947 291.272675,228.514511 296.343872,227.523666 
	C296.009338,225.826523 295.743347,224.477036 295.561127,223.552689 
	C292.483490,222.039413 288.691925,227.271210 287.300446,221.959976 
	C287.046204,220.989532 290.368317,219.082138 292.039520,217.607269 
	C294.444824,214.040833 291.939453,213.083374 287.612915,212.964569 
M231.077972,280.406769 
	C228.136917,280.406769 225.195877,280.406769 221.993866,280.406769 
	C221.993866,284.051086 221.993866,287.285950 221.993866,290.720032 
	C225.362564,290.720032 228.558929,290.720032 231.769409,290.720032 
	C231.769409,287.258392 231.769409,284.129974 231.077972,280.406769 
M258.648865,224.858398 
	C257.863129,228.173370 257.077423,231.488342 256.214996,235.126831 
	C260.560181,235.126831 263.612183,235.126831 266.779419,235.126831 
	C266.779419,231.599762 266.779419,228.385742 266.779419,224.834305 
	C264.184906,224.834305 261.893707,224.834305 258.648865,224.858398 
z"/>
<path fill="#FFFAFA" opacity="1.000000" stroke="none" 
	d="
M230.712799,241.793716 
	C231.695465,243.391037 232.597961,244.942688 232.660492,246.527481 
	C232.876953,252.012573 232.795395,257.509277 232.852005,263.001282 
	C232.855072,263.298859 233.083099,263.594177 233.340179,264.212006 
	C243.583633,264.212006 253.947235,264.212006 264.838806,264.212006 
	C264.838806,261.024658 264.901520,258.072052 264.821381,255.123306 
	C264.739075,252.094467 263.167450,250.647400 260.053345,250.714188 
	C255.585953,250.810013 251.114990,250.738602 246.275787,250.738602 
	C246.275787,248.170334 246.275787,245.934448 246.275787,242.409637 
	C253.251816,242.022003 260.456207,241.219299 267.641357,241.364914 
	C272.374390,241.460846 275.896027,244.329651 276.012909,249.562958 
	C276.198029,257.850189 276.062256,266.144562 276.062256,274.719635 
	C249.114502,274.719635 222.395035,274.719635 195.363358,274.719635 
	C195.363358,259.635376 195.363358,244.603226 195.363358,229.321991 
	C199.011749,229.321991 202.450134,229.321991 206.562241,229.321991 
	C206.562241,240.884750 206.562241,252.432953 206.562241,264.249390 
	C211.639740,264.249390 216.050980,264.249390 220.979034,264.249390 
	C220.979034,256.955902 220.979034,249.704346 220.979034,241.763245 
	C224.390686,241.763245 227.319122,241.763245 230.712799,241.793716 
z"/>
<path fill="#FFF9F9" opacity="1.000000" stroke="none" 
	d="
M337.769653,236.511185 
	C337.752441,234.256821 337.752441,232.451141 337.752441,230.323181 
	C340.256561,230.323181 342.662506,230.323181 346.222809,230.323181 
	C346.222809,238.103058 346.100006,245.885422 346.254303,253.662277 
	C346.441986,263.120819 353.446716,267.532959 362.250763,263.833466 
	C365.251343,262.572632 364.473938,260.254852 362.972687,258.570984 
	C360.328094,255.604645 357.296234,252.985092 354.448059,250.198364 
	C351.085236,246.908112 350.990387,243.491272 354.820160,241.145462 
	C360.835876,237.460724 367.173065,234.300812 373.766235,230.704803 
	C375.095734,233.534927 376.053406,235.573563 377.139069,237.884613 
	C371.967590,240.426010 367.090179,242.822891 360.204865,246.206512 
	C363.497284,248.762726 366.365631,250.459076 368.539368,252.800323 
	C371.895355,256.414948 374.611816,260.755188 372.401489,265.879486 
	C370.194122,270.997101 365.231964,271.932007 360.253052,272.097473 
	C355.685547,272.249268 351.109009,272.129700 346.015106,272.129700 
	C341.211426,284.027496 329.284943,289.012390 316.949615,283.242188 
	C308.157074,279.129242 306.095001,269.176666 312.109650,258.451202 
	C314.020233,259.079620 316.013123,259.735138 318.393433,260.518097 
	C317.894745,262.806671 317.302856,264.839661 317.028015,266.914673 
	C316.259583,272.716583 318.869995,276.253082 324.489502,277.242065 
	C331.663208,278.504547 337.095947,276.007416 337.845001,270.329956 
	C338.534637,265.103027 338.242157,259.733368 338.208527,254.427704 
	C338.171600,248.604431 337.935913,242.782440 337.769653,236.511185 
z"/>
<path fill="#FFFDFD" opacity="1.000000" stroke="none" 
	d="
M155.613663,258.711548 
	C155.613693,248.777054 155.613693,239.311493 155.613693,229.465668 
	C159.446533,229.465668 162.969299,229.465668 166.757172,229.465668 
	C166.757172,244.457870 166.757172,259.362000 166.757172,275.466248 
	C153.784454,274.945770 140.735443,274.850311 127.779060,273.705994 
	C122.053886,273.200348 119.004860,268.286865 118.930115,262.095062 
	C118.886803,258.507294 119.453018,254.912109 119.745094,251.318451 
	C123.433662,251.318451 126.500305,251.318451 129.561874,251.318451 
	C129.518280,264.231750 129.848358,264.555542 142.656677,264.557281 
	C146.770401,264.557831 150.884125,264.557404 155.325790,264.557404 
	C155.441116,262.403107 155.527374,260.791809 155.613663,258.711548 
z"/>
<path fill="#FFF7F7" opacity="1.000000" stroke="none" 
	d="
M175.979950,279.836273 
	C176.567673,275.574036 177.058075,271.643433 177.118820,267.706238 
	C177.249496,259.237976 177.158936,250.766312 177.158936,241.978851 
	C181.029892,241.978851 184.612762,241.978851 187.901886,241.978851 
	C187.901886,255.297073 188.577042,268.546539 187.653122,281.683563 
	C187.082870,289.791962 181.638489,292.414307 172.710648,290.731384 
	C173.870636,287.233704 170.042938,282.593384 175.979950,279.836273 
z"/>
<path fill="#FFF6F6" opacity="1.000000" stroke="none" 
	d="
M284.276550,274.917175 
	C283.553772,272.438019 283.093536,270.034821 283.075500,267.628326 
	C282.994873,256.882965 283.040466,246.136642 283.040466,235.154785 
	C286.957825,235.154785 290.386108,235.154785 294.240997,235.154785 
	C294.240997,248.313187 294.240997,261.447510 294.240997,274.991638 
	C290.982117,274.991638 287.862366,274.991638 284.276550,274.917175 
z"/>
<path fill="#FFF4F4" opacity="1.000000" stroke="none" 
	d="
M146.567261,240.930420 
	C143.598389,240.695160 140.696472,241.304901 141.536987,244.313995 
	C142.980423,249.481628 146.811935,244.332932 149.872528,245.716522 
	C150.121719,246.639175 150.488464,247.997177 150.953979,249.720901 
	C146.444382,250.597748 142.248474,251.565125 137.998505,252.113190 
	C137.140381,252.223862 136.077545,250.746887 135.109085,250.001892 
	C137.583771,247.905167 135.163589,245.722351 135.338272,243.698410 
	C135.555786,241.178177 136.632645,237.845093 138.497894,236.600052 
	C140.417313,235.318817 143.746582,235.975815 146.416229,236.231201 
	C146.720993,236.260330 146.750854,239.163513 146.567261,240.930420 
z"/>
<path fill="#FFF5F5" opacity="1.000000" stroke="none" 
	d="
M288.008789,212.958221 
	C291.939453,213.083374 294.444824,214.040833 292.039520,217.607269 
	C290.368317,219.082138 287.046204,220.989532 287.300446,221.959976 
	C288.691925,227.271210 292.483490,222.039413 295.561127,223.552689 
	C295.743347,224.477036 296.009338,225.826523 296.343872,227.523666 
	C291.272675,228.514511 286.587433,229.429947 281.704803,230.383957 
	C281.451996,226.067032 280.421326,221.898972 281.295258,218.178268 
	C281.792206,216.062454 285.403870,214.678238 288.008789,212.958221 
z"/>
<path fill="#FFF9F9" opacity="1.000000" stroke="none" 
	d="
M231.423691,280.704163 
	C231.769409,284.129974 231.769409,287.258392 231.769409,290.720032 
	C228.558929,290.720032 225.362564,290.720032 221.993866,290.720032 
	C221.993866,287.285950 221.993866,284.051086 221.993866,280.406769 
	C225.195877,280.406769 228.136917,280.406769 231.423691,280.704163 
z"/>
<path fill="#FFFFFF" opacity="1.000000" stroke="none" 
	d="
M259.125702,224.846344 
	C261.893707,224.834305 264.184906,224.834305 266.779419,224.834305 
	C266.779419,228.385742 266.779419,231.599762 266.779419,235.126831 
	C263.612183,235.126831 260.560181,235.126831 256.214996,235.126831 
	C257.077423,231.488342 257.863129,228.173370 259.125702,224.846344 
z"/>
</svg>